<?xml version="1.0" encoding="iso-8859-1"?>
<!-- Generator: Adobe Illustrator 16.0.0, SVG Export Plug-In . SVG Version: 6.00 Build 0)  -->
<!DOCTYPE svg PUBLIC "-//W3C//DTD SVG 1.1//EN" "http://www.w3.org/Graphics/SVG/1.1/DTD/svg11.dtd">
<svg version="1.1" id="Capa_1" xmlns="http://www.w3.org/2000/svg" xmlns:xlink="http://www.w3.org/1999/xlink" x="0px" y="0px"
	 width="512px" height="512px" viewBox="0 0 512 512" style="enable-background:new 0 0 512 512;" xml:space="preserve">
<g>
	<path d="M448,0H64C37.6,0,16,21.6,16,48v416c0,26.4,21.6,48,48,48h384c26.4,0,48-21.6,48-48V48C496,21.6,474.4,0,448,0z M432,448
		H80V64h352V448z M144,288h224v32H144V288z M144,352h224v32H144V352z M176,144c0,26.51,21.49,48,48,48s48-21.49,48-48
		s-21.49-48-48-48S176,117.49,176,144z M256,192h-64c-26.4,0-48,14.4-48,32v32h160v-32C304,206.4,282.4,192,256,192z"/>
</g>
<g>
</g>
<g>
</g>
<g>
</g>
<g>
</g>
<g>
</g>
<g>
</g>
<g>
</g>
<g>
</g>
<g>
</g>
<g>
</g>
<g>
</g>
<g>
</g>
<g>
</g>
<g>
</g>
<g>
</g>
</svg>
